<svg width="30" height="30" viewBox="0 0 30 30" fill="none" xmlns="http://www.w3.org/2000/svg">
<circle cx="15" cy="15" r="15" fill="white"/>
<path d="M6 11H13C13.5933 11 14.1734 10.8241 14.6667 10.4944C15.1601 10.1648 15.5446 9.69623 15.7716 9.14805C15.9987 8.59987 16.0581 7.99667 15.9424 7.41473C15.8266 6.83279 15.5409 6.29824 15.1213 5.87868C14.7018 5.45912 14.1672 5.1734 13.5853 5.05765C13.0033 4.94189 12.4001 5.0013 11.8519 5.22836C11.3038 5.45543 10.8352 5.83994 10.5056 6.33329C10.1759 6.82664 10 7.40666 10 8M7 19H18C18.5933 19 19.1734 19.1759 19.6667 19.5056C20.1601 19.8352 20.5446 20.3038 20.7716 20.852C20.9987 21.4001 21.0581 22.0033 20.9424 22.5853C20.8266 23.1672 20.5409 23.7018 20.1213 24.1213C19.7018 24.5409 19.1672 24.8266 18.5853 24.9424C18.0033 25.0581 17.4001 24.9987 16.8519 24.7716C16.3038 24.5446 15.8352 24.1601 15.5056 23.6667C15.1759 23.1734 15 22.5933 15 22M5 15H22C22.5933 15 23.1734 14.8241 23.6667 14.4944C24.1601 14.1648 24.5446 13.6962 24.7716 13.1481C24.9987 12.5999 25.0581 11.9967 24.9424 11.4147C24.8266 10.8328 24.5409 10.2982 24.1213 9.87868C23.7018 9.45912 23.1672 9.1734 22.5853 9.05765C22.0033 8.94189 21.4001 9.0013 20.8519 9.22836C20.3038 9.45543 19.8352 9.83994 19.5056 10.3333C19.1759 10.8266 19 11.4067 19 12" stroke="#06283D" stroke-width="2" stroke-linecap="round" stroke-linejoin="round"/>
</svg>
