<svg width="75" height="75" viewBox="0 0 75 75" fill="none" xmlns="http://www.w3.org/2000/svg">
<g clip-path="url(#clip0_81_10)">
<path d="M37.5 75C58.2107 75 75 58.2107 75 37.5C75 16.7893 58.2107 0 37.5 0C16.7893 0 0 16.7893 0 37.5C0 58.2107 16.7893 75 37.5 75Z" fill="white"/>
<path d="M15 27.5H32.5C33.9832 27.5 35.4335 27.0602 36.6668 26.236C37.9003 25.412 38.8615 24.2406 39.429 22.8701C39.9967 21.4997 40.1452 19.9917 39.856 18.5368C39.5665 17.082 38.8522 15.7456 37.8032 14.6967C36.7545 13.6478 35.418 12.9335 33.9633 12.6441C32.5083 12.3547 31.0003 12.5032 29.6298 13.0709C28.2595 13.6386 27.088 14.5998 26.264 15.8332C25.4397 17.0666 25 18.5166 25 20M17.5 47.5H45C46.4832 47.5 47.9335 47.9397 49.1668 48.764C50.4003 49.588 51.3615 50.7595 51.929 52.13C52.4968 53.5002 52.6452 55.0082 52.356 56.4632C52.0665 57.918 51.3522 59.2545 50.3032 60.3032C49.2545 61.3522 47.918 62.0665 46.4633 62.356C45.0083 62.6452 43.5003 62.4967 42.1298 61.929C40.7595 61.3615 39.588 60.4002 38.764 59.1667C37.9397 57.9335 37.5 56.4832 37.5 55M12.5 37.5H55C56.4832 37.5 57.9335 37.0602 59.1668 36.236C60.4003 35.412 61.3615 34.2405 61.929 32.8702C62.4968 31.4997 62.6452 29.9917 62.356 28.5367C62.0665 27.082 61.3522 25.7455 60.3032 24.6967C59.2545 23.6478 57.918 22.9335 56.4633 22.6441C55.0083 22.3547 53.5003 22.5032 52.1298 23.0709C50.7595 23.6386 49.588 24.5998 48.764 25.8332C47.9397 27.0665 47.5 28.5167 47.5 30" stroke="black" stroke-width="2" stroke-linecap="round" stroke-linejoin="round"/>
</g>
<defs>
<clipPath id="clip0_81_10">
<rect width="75" height="75" fill="white"/>
</clipPath>
</defs>
</svg>
