<svg width="512" height="512" viewBox="0 0 512 512" fill="none" xmlns="http://www.w3.org/2000/svg">
<path d="M326.655 506.587C311.34 505.844 296.214 502.888 281.746 497.81C271.119 494.02 260.063 491.563 248.831 490.496C238.097 491.055 227.454 492.772 217.087 495.616C195.437 500.882 170.715 506.88 147.602 496.494C124.488 486.107 112.639 463.726 102.399 443.977C97.8361 434.237 92.0874 425.099 85.2839 416.768C77.24 409.028 68.2444 402.343 58.5136 396.873C39.789 385.317 18.7239 372.151 10.093 349.477C1.46219 326.802 7.89876 302.811 14.6279 281.893C18.2825 271.15 20.5919 259.996 21.5033 248.686C21.1 237.935 19.3806 227.274 16.3833 216.942C11.117 195.291 5.11933 170.715 15.5056 147.456C27.4463 126.959 45.948 111.086 68.0222 102.4C77.7695 97.791 86.9087 91.993 95.2313 85.1383C102.924 77.1082 109.605 68.1671 115.126 58.5143C126.683 39.0583 139.848 17.9931 162.669 9.36228C185.49 0.731426 209.188 7.89943 230.253 14.6286C240.875 18.4338 251.933 20.8911 263.167 21.9429C273.916 21.4108 284.567 19.6437 294.911 16.6766C316.562 11.5566 341.284 5.55886 364.397 15.9451C384.874 27.7492 400.793 46.0892 409.599 68.0229C414.163 77.7626 419.911 86.9015 426.715 95.232C434.94 103.012 444.134 109.699 454.07 115.127C472.795 126.683 493.86 139.849 502.491 162.523C511.122 185.198 503.954 209.189 497.663 230.254C493.873 240.88 491.416 251.936 490.349 263.168C490.752 273.919 492.472 284.58 495.469 294.912C500.735 316.562 506.733 341.138 496.347 364.398C485.96 387.511 463.579 399.36 443.83 409.746C434.065 414.346 424.882 420.092 416.475 426.862C408.795 435.136 402.162 444.323 396.726 454.217C385.17 472.942 372.004 494.007 349.33 502.638C342.08 505.344 334.393 506.683 326.655 506.587ZM247.515 453.486H249.855C264.319 454.544 278.582 457.495 292.278 462.263C306.124 468.462 321.475 470.495 336.456 468.114C347.574 464.018 356.351 449.682 365.714 434.615C372.844 422.01 381.545 410.361 391.606 399.945C402.341 390.872 414.188 383.203 426.861 377.125C441.52 371.653 454.171 361.858 463.14 349.038V349.038C466.797 333.818 465.725 317.845 460.068 303.25C456.103 289.891 453.89 276.073 453.485 262.144C454.544 247.68 457.495 233.418 462.262 219.721C468.461 205.876 470.494 190.525 468.114 175.543C463.871 164.425 449.682 155.648 434.614 146.286C422.01 139.155 410.36 130.455 399.944 120.393C390.974 109.642 383.404 97.7958 377.416 85.1383C371.897 70.5066 362.112 57.8684 349.33 48.8594C334.12 45.2113 318.164 46.2309 303.542 51.7851C290.135 55.9932 276.193 58.2593 262.143 58.5143C247.565 57.3125 233.205 54.2143 219.428 49.2983C205.637 43.2641 190.386 41.3831 175.542 43.8857C164.424 48.128 155.647 62.3177 146.285 77.3851C139.134 89.8871 130.434 101.437 120.392 111.762C109.658 120.836 97.8109 128.504 85.1376 134.583C70.5059 140.103 57.8677 149.887 48.8588 162.67C45.2106 177.879 46.2302 193.835 51.7845 208.457C55.9117 221.884 58.1759 235.813 58.5136 249.856C57.3118 264.435 54.2137 278.794 49.2976 292.571C43.2634 306.362 41.3825 321.614 43.885 336.457C48.1273 347.575 62.317 356.352 77.3845 365.714C89.9891 372.845 101.639 381.545 112.054 391.607C121.025 402.358 128.595 414.204 134.582 426.862C140.102 441.493 149.886 454.132 162.669 463.141C177.895 466.724 193.846 465.654 208.456 460.069C221.172 456.347 234.282 454.137 247.515 453.486V453.486Z" fill="#FFF"/>
<path d="M228.205 325.778C225.851 325.807 223.515 325.369 221.33 324.49C219.146 323.611 217.157 322.309 215.478 320.658L162.816 269.019C161.106 267.348 159.742 265.356 158.802 263.158C157.862 260.96 157.364 258.598 157.337 256.207C157.31 253.816 157.754 251.443 158.644 249.224C159.534 247.005 160.852 244.983 162.523 243.273C164.194 241.563 166.186 240.2 168.384 239.26C170.583 238.32 172.945 237.822 175.336 237.795C177.726 237.767 180.099 238.211 182.318 239.101C184.537 239.991 186.56 241.309 188.269 242.981L228.352 282.185L323.876 191.195C325.585 189.401 327.641 187.973 329.919 186.998C332.197 186.022 334.649 185.52 337.127 185.521C339.605 185.523 342.057 186.028 344.334 187.006C346.611 187.984 348.665 189.415 350.372 191.211C352.079 193.007 353.403 195.132 354.264 197.455C355.125 199.779 355.504 202.253 355.379 204.728C355.255 207.203 354.628 209.627 353.538 211.852C352.448 214.077 350.916 216.058 349.037 217.673L240.786 320.073C239.168 321.806 237.224 323.202 235.065 324.181C232.906 325.16 230.575 325.703 228.205 325.778Z" fill="#FFF"/>
</svg>
