<svg width="512" height="512" viewBox="0 0 480 480" fill="none" xmlns="http://www.w3.org/2000/svg">
<path d="M240 0C176.348 0 115.303 25.2856 70.2947 70.2944C25.286 115.303 0.000320129 176.348 0.000320129 240C-0.0434071 266.422 4.39279 292.661 13.1203 317.6C5.0441 330.763 0.608369 345.834 0.266666 361.274C-0.0750373 376.713 3.68954 391.966 11.1755 405.473C18.6615 418.98 29.6002 430.257 42.8734 438.151C56.1465 446.045 71.2779 450.272 86.7203 450.4C93.5685 450.473 100.398 449.666 107.04 448C110.28 447.202 113.189 445.412 115.36 442.88C127.078 428.925 134.046 411.601 135.254 393.419C136.463 375.237 131.848 357.143 122.08 341.76C113.724 328.084 101.723 317.008 87.4223 309.772C73.1218 302.537 57.0882 299.43 41.1203 300.8C28.6552 259.575 29.2945 215.497 42.95 174.65C56.6055 133.804 82.6037 98.2036 117.356 72.7637C152.108 47.3239 193.9 33.299 236.963 32.6251C280.027 31.9512 322.237 44.6615 357.768 69.0015C393.3 93.3416 420.399 128.111 435.326 168.51C450.253 208.909 452.271 252.946 441.102 294.541C429.933 336.136 406.127 373.238 372.972 400.726C339.816 428.214 298.945 444.732 256 448V286.4C274.07 282.712 290.311 272.893 301.973 258.606C313.636 244.32 320.004 226.442 320 208V144C320 139.757 318.315 135.687 315.314 132.686C312.313 129.686 308.244 128 304 128H296V80C296 75.7565 294.315 71.6869 291.314 68.6863C288.313 65.6857 284.244 64 280 64C275.757 64 271.687 65.6857 268.687 68.6863C265.686 71.6869 264 75.7565 264 80V128H216V80C216 75.7565 214.315 71.6869 211.314 68.6863C208.313 65.6857 204.244 64 200 64C195.757 64 191.687 65.6857 188.687 68.6863C185.686 71.6869 184 75.7565 184 80V128H176C171.757 128 167.687 129.686 164.687 132.686C161.686 135.687 160 139.757 160 144V208C159.997 226.442 166.365 244.32 178.027 258.606C189.69 272.893 205.93 282.712 224 286.4V464C224 468.243 225.686 472.313 228.687 475.314C231.687 478.314 235.757 480 240 480C303.652 480 364.697 454.714 409.706 409.706C454.715 364.697 480 303.652 480 240C480 176.348 454.715 115.303 409.706 70.2944C364.697 25.2856 303.652 9.48488e-07 240 0V0ZM94.8803 358.4C100.682 367.241 103.774 377.585 103.774 388.16C103.774 398.735 100.682 409.079 94.8803 417.92C84.4279 419.194 73.8293 417.451 64.3349 412.898C54.8405 408.344 46.8465 401.17 41.296 392.222C35.7455 383.274 32.8702 372.925 33.0091 362.397C33.1481 351.868 36.2956 341.598 42.0803 332.8C52.4115 331.534 62.8886 333.275 72.2543 337.816C81.62 342.357 89.4763 349.504 94.8803 358.4ZM192 208V160H288V208C288 220.73 282.943 232.939 273.941 241.941C264.94 250.943 252.731 256 240 256C227.27 256 215.061 250.943 206.059 241.941C197.057 232.939 192 220.73 192 208V208Z" fill="#FFF"/>
</svg>
