<svg width="512" height="512" viewBox="0 0 428 342" fill="none" xmlns="http://www.w3.org/2000/svg">
<path d="M256.669 0.333313C231.293 0.333313 206.888 5.74985 184.127 16.4378C173.471 21.4597 168.878 34.1466 173.887 44.8133C178.899 55.5013 191.607 60.0624 202.274 55.064C219.304 47.0618 237.606 43 256.669 43C327.253 43 384.669 100.417 384.669 171C384.669 241.583 327.253 299 256.669 299C241.576 299 226.815 296.417 212.784 291.333C201.732 287.311 189.471 293.02 185.45 304.084C181.429 315.166 187.148 327.397 198.22 331.418C216.93 338.23 236.597 341.667 256.669 341.667C350.773 341.667 427.336 265.103 427.336 171C427.336 76.8965 350.773 0.333313 256.669 0.333313ZM64.6693 149.667C52.889 149.667 43.3359 159.209 43.3359 171C43.3359 182.791 52.889 192.333 64.6693 192.333H150.003C161.783 192.333 171.336 182.791 171.336 171C171.336 159.209 161.783 149.667 150.003 149.667H64.6693Z" fill="#294354"/>
<path d="M192.668 85.6666C192.668 73.8757 183.115 64.3333 171.335 64.3333H107.335C95.5544 64.3333 86.0013 73.8757 86.0013 85.6666C86.0013 97.4576 95.5544 107 107.335 107H171.335C183.115 107 192.668 97.4576 192.668 85.6666ZM22.0013 277.667H171.335C183.115 277.667 192.668 268.124 192.668 256.333C192.668 244.542 183.115 235 171.335 235H22.0013C10.221 235 0.667969 244.542 0.667969 256.333C0.667969 268.124 10.221 277.667 22.0013 277.667ZM256.668 107C244.888 107 235.335 116.542 235.335 128.333V171C235.335 179.083 239.898 186.458 247.126 190.083L289.792 211.416C292.856 212.937 296.115 213.667 299.313 213.667C307.147 213.667 314.678 209.355 318.417 201.876C323.689 191.335 319.418 178.522 308.875 173.251L278.001 157.812V128.333C278.001 116.542 268.448 107 256.668 107Z" fill="#294354"/>
</svg>
